<?xml version="1.0" encoding="UTF-8"?>
<mxfile host="app.diagrams.net" agent="Mozilla/5.0 (Windows NT 10.0; Win64; x64) AppleWebKit/537.36 (KHTML, like Gecko) Chrome/136.0.0.0 YaBrowser/25.6.0.0 Safari/537.36" version="27.2.0">
  <diagram name="Страница — 1" id="7wpDZ7R7Cqz2rl0AdxME">
    <mxGraphModel dx="2025" dy="1644" grid="1" gridSize="10" guides="1" tooltips="1" connect="1" arrows="1" fold="1" page="1" pageScale="1" pageWidth="827" pageHeight="1169" math="0" shadow="0">
      <root>
        <mxCell id="0" />
        <mxCell id="1" parent="0" />
        <mxCell id="yRMp8iln807b7inEvSOR-3" value="" style="group" vertex="1" connectable="0" parent="1">
          <mxGeometry x="1530" y="1320" width="390" height="450" as="geometry" />
        </mxCell>
        <mxCell id="HwbPbKse9-UZTt6arCgf-4" value="" style="rounded=1;whiteSpace=wrap;html=1;" parent="yRMp8iln807b7inEvSOR-3" vertex="1">
          <mxGeometry width="390" height="450" as="geometry" />
        </mxCell>
        <object placeholders="1" c4Name="Хранилище данных" c4Type="Container" c4Technology="Greenplum" c4Description="Единое хранилище данных для всех систем компании" label="&lt;font style=&quot;font-size: 16px&quot;&gt;&lt;b&gt;%c4Name%&lt;/b&gt;&lt;/font&gt;&lt;div&gt;[%c4Type%: %c4Technology%]&lt;/div&gt;&lt;br&gt;&lt;div&gt;&lt;font style=&quot;font-size: 11px&quot;&gt;&lt;font color=&quot;#E6E6E6&quot;&gt;%c4Description%&lt;/font&gt;&lt;/div&gt;" id="HwbPbKse9-UZTt6arCgf-35">
          <mxCell style="rounded=1;whiteSpace=wrap;html=1;fontSize=11;labelBackgroundColor=none;fillColor=#23A2D9;fontColor=#ffffff;align=center;arcSize=10;strokeColor=#0E7DAD;metaEdit=1;resizable=0;points=[[0.25,0,0],[0.5,0,0],[0.75,0,0],[1,0.25,0],[1,0.5,0],[1,0.75,0],[0.75,1,0],[0.5,1,0],[0.25,1,0],[0,0.75,0],[0,0.5,0],[0,0.25,0]];" parent="yRMp8iln807b7inEvSOR-3" vertex="1">
            <mxGeometry x="74.28571428571429" y="43.269230769230774" width="240" height="120" as="geometry" />
          </mxCell>
        </object>
        <object placeholders="1" c4Name="DWH Хранилище" c4Type="Container" c4Technology="S3" c4Description="Физическое хранилище данных DWH" label="&lt;font style=&quot;font-size: 16px&quot;&gt;&lt;b&gt;%c4Name%&lt;/b&gt;&lt;/font&gt;&lt;div&gt;[%c4Type%:&amp;nbsp;%c4Technology%]&lt;/div&gt;&lt;br&gt;&lt;div&gt;&lt;font style=&quot;font-size: 11px&quot;&gt;&lt;font color=&quot;#E6E6E6&quot;&gt;%c4Description%&lt;/font&gt;&lt;/div&gt;" id="HwbPbKse9-UZTt6arCgf-36">
          <mxCell style="shape=cylinder3;size=15;whiteSpace=wrap;html=1;boundedLbl=1;rounded=0;labelBackgroundColor=none;fillColor=#23A2D9;fontSize=12;fontColor=#ffffff;align=center;strokeColor=#0E7DAD;metaEdit=1;points=[[0.5,0,0],[1,0.25,0],[1,0.5,0],[1,0.75,0],[0.5,1,0],[0,0.75,0],[0,0.5,0],[0,0.25,0]];resizable=0;" parent="yRMp8iln807b7inEvSOR-3" vertex="1">
            <mxGeometry x="74.28571428571429" y="242.30769230769232" width="240" height="120" as="geometry" />
          </mxCell>
        </object>
        <mxCell id="HwbPbKse9-UZTt6arCgf-58" style="edgeStyle=orthogonalEdgeStyle;rounded=0;orthogonalLoop=1;jettySize=auto;html=1;entryX=0.5;entryY=0;entryDx=0;entryDy=0;entryPerimeter=0;" parent="yRMp8iln807b7inEvSOR-3" source="HwbPbKse9-UZTt6arCgf-35" target="HwbPbKse9-UZTt6arCgf-36" edge="1">
          <mxGeometry relative="1" as="geometry" />
        </mxCell>
        <mxCell id="HwbPbKse9-UZTt6arCgf-6" value="" style="rounded=1;whiteSpace=wrap;html=1;" parent="1" vertex="1">
          <mxGeometry x="1160" y="370" width="1250" height="830" as="geometry" />
        </mxCell>
        <object placeholders="1" c4Name="CRM" c4Type="Container" c4Technology="Container: Kotlin, Spring Boot" c4Description="Система управления данными собственников" label="&lt;font style=&quot;font-size: 16px&quot;&gt;&lt;b&gt;%c4Name%&lt;/b&gt;&lt;/font&gt;&lt;div&gt;[%c4Type%: %c4Technology%]&lt;/div&gt;&lt;br&gt;&lt;div&gt;&lt;font style=&quot;font-size: 11px&quot;&gt;&lt;font color=&quot;#E6E6E6&quot;&gt;%c4Description%&lt;/font&gt;&lt;/div&gt;" id="HwbPbKse9-UZTt6arCgf-15">
          <mxCell style="rounded=1;whiteSpace=wrap;html=1;fontSize=11;labelBackgroundColor=none;fillColor=#23A2D9;fontColor=#ffffff;align=center;arcSize=10;strokeColor=#0E7DAD;metaEdit=1;resizable=0;points=[[0.25,0,0],[0.5,0,0],[0.75,0,0],[1,0.25,0],[1,0.5,0],[1,0.75,0],[0.75,1,0],[0.5,1,0],[0.25,1,0],[0,0.75,0],[0,0.5,0],[0,0.25,0]];" parent="1" vertex="1">
            <mxGeometry x="1190" y="620" width="240" height="120" as="geometry" />
          </mxCell>
        </object>
        <mxCell id="HwbPbKse9-UZTt6arCgf-118" value="" style="edgeStyle=orthogonalEdgeStyle;rounded=0;orthogonalLoop=1;jettySize=auto;html=1;" parent="1" source="HwbPbKse9-UZTt6arCgf-16" target="HwbPbKse9-UZTt6arCgf-15" edge="1">
          <mxGeometry relative="1" as="geometry" />
        </mxCell>
        <mxCell id="HwbPbKse9-UZTt6arCgf-120" value="" style="edgeStyle=orthogonalEdgeStyle;rounded=0;orthogonalLoop=1;jettySize=auto;html=1;" parent="1" source="HwbPbKse9-UZTt6arCgf-16" target="HwbPbKse9-UZTt6arCgf-15" edge="1">
          <mxGeometry relative="1" as="geometry" />
        </mxCell>
        <object placeholders="1" c4Name="crm-tenant-db" c4Type="Container" c4Technology="PostgreSQL" c4Description="База данных CRM по собственникам" label="&lt;font style=&quot;font-size: 16px&quot;&gt;&lt;b&gt;%c4Name%&lt;/b&gt;&lt;/font&gt;&lt;div&gt;[%c4Type%:&amp;nbsp;%c4Technology%]&lt;/div&gt;&lt;br&gt;&lt;div&gt;&lt;font style=&quot;font-size: 11px&quot;&gt;&lt;font color=&quot;#E6E6E6&quot;&gt;%c4Description%&lt;/font&gt;&lt;/div&gt;" id="HwbPbKse9-UZTt6arCgf-16">
          <mxCell style="shape=cylinder3;size=15;whiteSpace=wrap;html=1;boundedLbl=1;rounded=0;labelBackgroundColor=none;fillColor=#23A2D9;fontSize=12;fontColor=#ffffff;align=center;strokeColor=#0E7DAD;metaEdit=1;points=[[0.5,0,0],[1,0.25,0],[1,0.5,0],[1,0.75,0],[0.5,1,0],[0,0.75,0],[0,0.5,0],[0,0.25,0]];resizable=0;" parent="1" vertex="1">
            <mxGeometry x="1190" y="870" width="240" height="120" as="geometry" />
          </mxCell>
        </object>
        <mxCell id="HwbPbKse9-UZTt6arCgf-19" style="edgeStyle=orthogonalEdgeStyle;rounded=0;orthogonalLoop=1;jettySize=auto;html=1;entryX=0.5;entryY=0;entryDx=0;entryDy=0;entryPerimeter=0;" parent="1" source="HwbPbKse9-UZTt6arCgf-15" target="HwbPbKse9-UZTt6arCgf-16" edge="1">
          <mxGeometry relative="1" as="geometry" />
        </mxCell>
        <mxCell id="HwbPbKse9-UZTt6arCgf-20" value="&lt;div&gt;[JDBC]&lt;/div&gt;" style="edgeLabel;html=1;align=center;verticalAlign=middle;resizable=0;points=[];" parent="HwbPbKse9-UZTt6arCgf-19" connectable="0" vertex="1">
          <mxGeometry x="-0.0327" y="1" relative="1" as="geometry">
            <mxPoint as="offset" />
          </mxGeometry>
        </mxCell>
        <mxCell id="HwbPbKse9-UZTt6arCgf-55" style="edgeStyle=orthogonalEdgeStyle;rounded=0;orthogonalLoop=1;jettySize=auto;html=1;" parent="1" source="HwbPbKse9-UZTt6arCgf-16" target="HwbPbKse9-UZTt6arCgf-35" edge="1">
          <mxGeometry relative="1" as="geometry">
            <Array as="points">
              <mxPoint x="1310" y="1430" />
            </Array>
          </mxGeometry>
        </mxCell>
        <mxCell id="HwbPbKse9-UZTt6arCgf-56" value="&lt;div&gt;Передача сырых данных&lt;/div&gt;[CDC]" style="edgeLabel;html=1;align=center;verticalAlign=middle;resizable=0;points=[];" parent="HwbPbKse9-UZTt6arCgf-55" connectable="0" vertex="1">
          <mxGeometry x="-0.3918" y="-2" relative="1" as="geometry">
            <mxPoint y="1" as="offset" />
          </mxGeometry>
        </mxCell>
        <mxCell id="HwbPbKse9-UZTt6arCgf-57" style="edgeStyle=orthogonalEdgeStyle;rounded=0;orthogonalLoop=1;jettySize=auto;html=1;entryX=0.5;entryY=0;entryDx=0;entryDy=0;entryPerimeter=0;" parent="1" target="HwbPbKse9-UZTt6arCgf-75" edge="1">
          <mxGeometry relative="1" as="geometry">
            <mxPoint x="1139.9200000000005" y="370" as="targetPoint" />
            <mxPoint x="1510" y="210" as="sourcePoint" />
          </mxGeometry>
        </mxCell>
        <object placeholders="1" c4Name="PropDevelopment" c4Type="SystemScopeBoundary" c4Application="Software System" label="&lt;font style=&quot;font-size: 16px&quot;&gt;&lt;b&gt;&lt;div style=&quot;text-align: left&quot;&gt;%c4Name%&lt;/div&gt;&lt;/b&gt;&lt;/font&gt;&lt;div style=&quot;text-align: left&quot;&gt;[%c4Application%]&lt;/div&gt;" id="HwbPbKse9-UZTt6arCgf-61">
          <mxCell style="rounded=1;fontSize=11;whiteSpace=wrap;html=1;dashed=1;arcSize=20;fillColor=none;strokeColor=#666666;fontColor=#333333;labelBackgroundColor=none;align=left;verticalAlign=bottom;labelBorderColor=none;spacingTop=0;spacing=10;dashPattern=8 4;metaEdit=1;rotatable=0;perimeter=rectanglePerimeter;noLabel=0;labelPadding=0;allowArrows=0;connectable=0;expand=0;recursiveResize=0;editable=1;pointerEvents=0;absoluteArcSize=1;points=[[0.25,0,0],[0.5,0,0],[0.75,0,0],[1,0.25,0],[1,0.5,0],[1,0.75,0],[0.75,1,0],[0.5,1,0],[0.25,1,0],[0,0.75,0],[0,0.5,0],[0,0.25,0]];" parent="1" vertex="1">
            <mxGeometry x="890" y="340" width="1540" height="1470" as="geometry" />
          </mxCell>
        </object>
        <object placeholders="1" c4Name="auth-service-1" c4Type="Container" c4Technology="Keycloak" c4Description="Сервис аутентификации покупателей" label="&lt;font style=&quot;font-size: 16px&quot;&gt;&lt;b&gt;%c4Name%&lt;/b&gt;&lt;/font&gt;&lt;div&gt;[%c4Type%: %c4Technology%]&lt;/div&gt;&lt;br&gt;&lt;div&gt;&lt;font style=&quot;font-size: 11px&quot;&gt;&lt;font color=&quot;#E6E6E6&quot;&gt;%c4Description%&lt;/font&gt;&lt;/div&gt;" id="HwbPbKse9-UZTt6arCgf-67">
          <mxCell style="rounded=1;whiteSpace=wrap;html=1;fontSize=11;labelBackgroundColor=none;fillColor=#23A2D9;fontColor=#ffffff;align=center;arcSize=10;strokeColor=#0E7DAD;metaEdit=1;resizable=0;points=[[0.25,0,0],[0.5,0,0],[0.75,0,0],[1,0.25,0],[1,0.5,0],[1,0.75,0],[0.75,1,0],[0.5,1,0],[0.25,1,0],[0,0.75,0],[0,0.5,0],[0,0.25,0]];" parent="1" vertex="1">
            <mxGeometry x="910" y="510" width="240" height="120" as="geometry" />
          </mxCell>
        </object>
        <object placeholders="1" c4Name="auth-db-1" c4Type="Container" c4Technology="PostgreSQL" c4Description="База данных сервиса аутентификации покупателей" label="&lt;font style=&quot;font-size: 16px&quot;&gt;&lt;b&gt;%c4Name%&lt;/b&gt;&lt;/font&gt;&lt;div&gt;[%c4Type%:&amp;nbsp;%c4Technology%]&lt;/div&gt;&lt;br&gt;&lt;div&gt;&lt;font style=&quot;font-size: 11px&quot;&gt;&lt;font color=&quot;#E6E6E6&quot;&gt;%c4Description%&lt;/font&gt;&lt;/div&gt;" id="HwbPbKse9-UZTt6arCgf-70">
          <mxCell style="shape=cylinder3;size=15;whiteSpace=wrap;html=1;boundedLbl=1;rounded=0;labelBackgroundColor=none;fillColor=#23A2D9;fontSize=12;fontColor=#ffffff;align=center;strokeColor=#0E7DAD;metaEdit=1;points=[[0.5,0,0],[1,0.25,0],[1,0.5,0],[1,0.75,0],[0.5,1,0],[0,0.75,0],[0,0.5,0],[0,0.25,0]];resizable=0;" parent="1" vertex="1">
            <mxGeometry x="910" y="680" width="240" height="120" as="geometry" />
          </mxCell>
        </object>
        <mxCell id="HwbPbKse9-UZTt6arCgf-71" style="edgeStyle=orthogonalEdgeStyle;rounded=0;orthogonalLoop=1;jettySize=auto;html=1;entryX=0.5;entryY=0;entryDx=0;entryDy=0;entryPerimeter=0;" parent="1" source="HwbPbKse9-UZTt6arCgf-67" target="HwbPbKse9-UZTt6arCgf-70" edge="1">
          <mxGeometry relative="1" as="geometry" />
        </mxCell>
        <mxCell id="HwbPbKse9-UZTt6arCgf-72" style="edgeStyle=orthogonalEdgeStyle;rounded=0;orthogonalLoop=1;jettySize=auto;html=1;exitX=0.005;exitY=0.33;exitDx=0;exitDy=0;exitPerimeter=0;entryX=0.5;entryY=0;entryDx=0;entryDy=0;entryPerimeter=0;" parent="1" source="HwbPbKse9-UZTt6arCgf-75" target="HwbPbKse9-UZTt6arCgf-67" edge="1">
          <mxGeometry relative="1" as="geometry">
            <mxPoint x="1160" y="535" as="targetPoint" />
            <Array as="points">
              <mxPoint x="1390" y="460" />
              <mxPoint x="1040" y="460" />
            </Array>
          </mxGeometry>
        </mxCell>
        <mxCell id="HwbPbKse9-UZTt6arCgf-73" style="edgeStyle=orthogonalEdgeStyle;rounded=0;orthogonalLoop=1;jettySize=auto;html=1;" parent="1" source="HwbPbKse9-UZTt6arCgf-75" target="HwbPbKse9-UZTt6arCgf-15" edge="1">
          <mxGeometry relative="1" as="geometry">
            <Array as="points">
              <mxPoint x="1510" y="560" />
              <mxPoint x="1310" y="560" />
            </Array>
          </mxGeometry>
        </mxCell>
        <mxCell id="HwbPbKse9-UZTt6arCgf-74" value="[REST]" style="edgeLabel;html=1;align=center;verticalAlign=middle;resizable=0;points=[];" parent="HwbPbKse9-UZTt6arCgf-73" connectable="0" vertex="1">
          <mxGeometry x="-0.3582" y="2" relative="1" as="geometry">
            <mxPoint x="1" as="offset" />
          </mxGeometry>
        </mxCell>
        <mxCell id="HwbPbKse9-UZTt6arCgf-133" style="edgeStyle=orthogonalEdgeStyle;rounded=0;orthogonalLoop=1;jettySize=auto;html=1;" parent="1" source="HwbPbKse9-UZTt6arCgf-75" target="HwbPbKse9-UZTt6arCgf-109" edge="1">
          <mxGeometry relative="1" as="geometry">
            <Array as="points">
              <mxPoint x="1510" y="560" />
              <mxPoint x="1720" y="560" />
            </Array>
          </mxGeometry>
        </mxCell>
        <mxCell id="HwbPbKse9-UZTt6arCgf-134" style="edgeStyle=orthogonalEdgeStyle;rounded=0;orthogonalLoop=1;jettySize=auto;html=1;" parent="1" source="HwbPbKse9-UZTt6arCgf-75" target="HwbPbKse9-UZTt6arCgf-110" edge="1">
          <mxGeometry relative="1" as="geometry">
            <Array as="points">
              <mxPoint x="1510" y="560" />
              <mxPoint x="2280" y="560" />
            </Array>
          </mxGeometry>
        </mxCell>
        <object placeholders="1" c4Name="Витрина сервисов для собственников" c4Type="Container" c4Technology="Mobile app(iOS, Android)" c4Description="Мобильные приложения для собственников" label="&lt;font style=&quot;font-size: 16px&quot;&gt;&lt;b&gt;%c4Name%&lt;/b&gt;&lt;/font&gt;&lt;div&gt;[%c4Type%: %c4Technology%]&lt;/div&gt;&lt;br&gt;&lt;div&gt;&lt;font style=&quot;font-size: 11px&quot;&gt;&lt;font color=&quot;#E6E6E6&quot;&gt;%c4Description%&lt;/font&gt;&lt;/div&gt;" id="HwbPbKse9-UZTt6arCgf-75">
          <mxCell style="rounded=1;whiteSpace=wrap;html=1;fontSize=11;labelBackgroundColor=none;fillColor=#23A2D9;fontColor=#ffffff;align=center;arcSize=10;strokeColor=#0E7DAD;metaEdit=1;resizable=0;points=[[0.25,0,0],[0.5,0,0],[0.75,0,0],[1,0.25,0],[1,0.5,0],[1,0.75,0],[0.75,1,0],[0.5,1,0],[0.25,1,0],[0,0.75,0],[0,0.5,0],[0,0.25,0]];" parent="1" vertex="1">
            <mxGeometry x="1390" y="420" width="240" height="120" as="geometry" />
          </mxCell>
        </object>
        <mxCell id="HwbPbKse9-UZTt6arCgf-90" value="" style="image;html=1;image=img/lib/clip_art/networking/Firewall_02_128x128.png" parent="1" vertex="1">
          <mxGeometry x="1470" y="250" width="80" height="80" as="geometry" />
        </mxCell>
        <mxCell id="HwbPbKse9-UZTt6arCgf-92" value="Firewall" style="text;html=1;align=center;verticalAlign=middle;whiteSpace=wrap;rounded=0;" parent="1" vertex="1">
          <mxGeometry x="1560" y="275" width="60" height="30" as="geometry" />
        </mxCell>
        <object placeholders="1" c4Name="Собственник" c4Type="Person" c4Description="Клиент" label="&lt;font style=&quot;font-size: 16px&quot;&gt;&lt;b&gt;%c4Name%&lt;/b&gt;&lt;/font&gt;&lt;div&gt;[%c4Type%]&lt;/div&gt;&lt;br&gt;&lt;div&gt;&lt;font style=&quot;font-size: 11px&quot;&gt;&lt;font color=&quot;#cccccc&quot;&gt;%c4Description%&lt;/font&gt;&lt;/div&gt;" id="HwbPbKse9-UZTt6arCgf-108">
          <mxCell style="html=1;fontSize=11;dashed=0;whiteSpace=wrap;fillColor=#083F75;strokeColor=#06315C;fontColor=#ffffff;shape=mxgraph.c4.person2;align=center;metaEdit=1;points=[[0.5,0,0],[1,0.5,0],[1,0.75,0],[0.75,1,0],[0.5,1,0],[0.25,1,0],[0,0.75,0],[0,0.5,0]];resizable=0;" parent="1" vertex="1">
            <mxGeometry x="1410" y="30" width="200" height="180" as="geometry" />
          </mxCell>
        </object>
        <mxCell id="HwbPbKse9-UZTt6arCgf-116" style="edgeStyle=orthogonalEdgeStyle;rounded=0;orthogonalLoop=1;jettySize=auto;html=1;" parent="1" source="HwbPbKse9-UZTt6arCgf-109" target="HwbPbKse9-UZTt6arCgf-115" edge="1">
          <mxGeometry relative="1" as="geometry" />
        </mxCell>
        <mxCell id="HwbPbKse9-UZTt6arCgf-119" value="&lt;span style=&quot;color: rgba(0, 0, 0, 0); font-family: monospace; font-size: 0px; text-align: start; background-color: rgb(27, 29, 30);&quot;&gt;%3CmxGraphModel%3E%3Croot%3E%3CmxCell%20id%3D%220%22%2F%3E%3CmxCell%20id%3D%221%22%20parent%3D%220%22%2F%3E%3CmxCell%20id%3D%222%22%20value%3D%22%26lt%3Bdiv%26gt%3B%5BJDBC%5D%26lt%3B%2Fdiv%26gt%3B%22%20style%3D%22edgeLabel%3Bhtml%3D1%3Balign%3Dcenter%3BverticalAlign%3Dmiddle%3Bresizable%3D0%3Bpoints%3D%5B%5D%3B%22%20connectable%3D%220%22%20vertex%3D%221%22%20parent%3D%221%22%3E%3CmxGeometry%20x%3D%221730%22%20y%3D%22831.0000000000002%22%20as%3D%22geometry%22%2F%3E%3C%2FmxCell%3E%3C%2Froot%3E%3C%2FmxGraphModel%3E&lt;/span&gt;" style="edgeLabel;html=1;align=center;verticalAlign=middle;resizable=0;points=[];" parent="HwbPbKse9-UZTt6arCgf-116" vertex="1" connectable="0">
          <mxGeometry x="-0.2286" y="-5" relative="1" as="geometry">
            <mxPoint as="offset" />
          </mxGeometry>
        </mxCell>
        <mxCell id="HwbPbKse9-UZTt6arCgf-121" value="[JDBC]" style="edgeLabel;html=1;align=center;verticalAlign=middle;resizable=0;points=[];" parent="HwbPbKse9-UZTt6arCgf-116" vertex="1" connectable="0">
          <mxGeometry x="-0.1333" y="2" relative="1" as="geometry">
            <mxPoint as="offset" />
          </mxGeometry>
        </mxCell>
        <mxCell id="HwbPbKse9-UZTt6arCgf-126" style="edgeStyle=orthogonalEdgeStyle;rounded=0;orthogonalLoop=1;jettySize=auto;html=1;" parent="1" source="HwbPbKse9-UZTt6arCgf-109" target="HwbPbKse9-UZTt6arCgf-123" edge="1">
          <mxGeometry relative="1" as="geometry">
            <Array as="points">
              <mxPoint x="1720" y="790" />
              <mxPoint x="1990" y="790" />
            </Array>
          </mxGeometry>
        </mxCell>
        <mxCell id="HwbPbKse9-UZTt6arCgf-135" style="edgeStyle=orthogonalEdgeStyle;rounded=0;orthogonalLoop=1;jettySize=auto;html=1;" parent="1" source="HwbPbKse9-UZTt6arCgf-109" target="HwbPbKse9-UZTt6arCgf-111" edge="1">
          <mxGeometry relative="1" as="geometry">
            <Array as="points">
              <mxPoint x="1770" y="524" />
            </Array>
          </mxGeometry>
        </mxCell>
        <object placeholders="1" c4Name="smart-intercom-app" c4Type="Container" c4Technology="Container: Kotlin, SpringBoot" c4Description="Интеллектуальный домофон. &#xa;(Открытие по звонку. Распознавать пользователей по биометрии)" label="&lt;font style=&quot;font-size: 16px&quot;&gt;&lt;b&gt;%c4Name%&lt;/b&gt;&lt;/font&gt;&lt;div&gt;[%c4Type%: %c4Technology%]&lt;/div&gt;&lt;br&gt;&lt;div&gt;&lt;font style=&quot;font-size: 11px&quot;&gt;&lt;font color=&quot;#E6E6E6&quot;&gt;%c4Description%&lt;/font&gt;&lt;/div&gt;" id="HwbPbKse9-UZTt6arCgf-109">
          <mxCell style="rounded=1;whiteSpace=wrap;html=1;fontSize=11;labelBackgroundColor=none;fillColor=#23A2D9;fontColor=#ffffff;align=center;arcSize=10;strokeColor=#0E7DAD;metaEdit=1;resizable=0;points=[[0.25,0,0],[0.5,0,0],[0.75,0,0],[1,0.25,0],[1,0.5,0],[1,0.75,0],[0.75,1,0],[0.5,1,0],[0.25,1,0],[0,0.75,0],[0,0.5,0],[0,0.25,0]];" parent="1" vertex="1">
            <mxGeometry x="1600" y="620" width="240" height="120" as="geometry" />
          </mxCell>
        </object>
        <mxCell id="HwbPbKse9-UZTt6arCgf-117" style="edgeStyle=orthogonalEdgeStyle;rounded=0;orthogonalLoop=1;jettySize=auto;html=1;" parent="1" source="HwbPbKse9-UZTt6arCgf-110" target="HwbPbKse9-UZTt6arCgf-114" edge="1">
          <mxGeometry relative="1" as="geometry" />
        </mxCell>
        <mxCell id="HwbPbKse9-UZTt6arCgf-122" value="[JDBC]" style="edgeLabel;html=1;align=center;verticalAlign=middle;resizable=0;points=[];" parent="HwbPbKse9-UZTt6arCgf-117" vertex="1" connectable="0">
          <mxGeometry x="-0.2571" y="2" relative="1" as="geometry">
            <mxPoint x="-2" y="4" as="offset" />
          </mxGeometry>
        </mxCell>
        <mxCell id="HwbPbKse9-UZTt6arCgf-125" style="edgeStyle=orthogonalEdgeStyle;rounded=0;orthogonalLoop=1;jettySize=auto;html=1;" parent="1" source="HwbPbKse9-UZTt6arCgf-110" target="HwbPbKse9-UZTt6arCgf-123" edge="1">
          <mxGeometry relative="1" as="geometry">
            <Array as="points">
              <mxPoint x="2280" y="790" />
              <mxPoint x="1990" y="790" />
            </Array>
          </mxGeometry>
        </mxCell>
        <mxCell id="HwbPbKse9-UZTt6arCgf-136" style="edgeStyle=orthogonalEdgeStyle;rounded=0;orthogonalLoop=1;jettySize=auto;html=1;" parent="1" source="HwbPbKse9-UZTt6arCgf-110" target="HwbPbKse9-UZTt6arCgf-111" edge="1">
          <mxGeometry relative="1" as="geometry">
            <Array as="points">
              <mxPoint x="2330" y="524" />
            </Array>
          </mxGeometry>
        </mxCell>
        <object placeholders="1" c4Name="smart-gate-app" c4Type="Container" c4Technology="Container: Kotlin, SpringBoot" c4Description="Классическое управление шлагбаумом и автоматический доступ по распознанным номерам" label="&lt;font style=&quot;font-size: 16px&quot;&gt;&lt;b&gt;%c4Name%&lt;/b&gt;&lt;/font&gt;&lt;div&gt;[%c4Type%: %c4Technology%]&lt;/div&gt;&lt;br&gt;&lt;div&gt;&lt;font style=&quot;font-size: 11px&quot;&gt;&lt;font color=&quot;#E6E6E6&quot;&gt;%c4Description%&lt;/font&gt;&lt;/div&gt;" id="HwbPbKse9-UZTt6arCgf-110">
          <mxCell style="rounded=1;whiteSpace=wrap;html=1;fontSize=11;labelBackgroundColor=none;fillColor=#23A2D9;fontColor=#ffffff;align=center;arcSize=10;strokeColor=#0E7DAD;metaEdit=1;resizable=0;points=[[0.25,0,0],[0.5,0,0],[0.75,0,0],[1,0.25,0],[1,0.5,0],[1,0.75,0],[0.75,1,0],[0.5,1,0],[0.25,1,0],[0,0.75,0],[0,0.5,0],[0,0.25,0]];" parent="1" vertex="1">
            <mxGeometry x="2160" y="620" width="240" height="120" as="geometry" />
          </mxCell>
        </object>
        <object placeholders="1" c4Name="Партнёр сервисов &#xa;&quot;Умный дом&quot;" c4Type="Software System" c4Description="" label="&lt;font style=&quot;font-size: 16px&quot;&gt;&lt;b&gt;%c4Name%&lt;/b&gt;&lt;/font&gt;&lt;div&gt;[%c4Type%]&lt;/div&gt;&lt;br&gt;&lt;div&gt;&lt;font style=&quot;font-size: 11px&quot;&gt;&lt;font color=&quot;#cccccc&quot;&gt;%c4Description%&lt;/font&gt;&lt;/div&gt;" id="HwbPbKse9-UZTt6arCgf-111">
          <mxCell style="rounded=1;whiteSpace=wrap;html=1;labelBackgroundColor=none;fillColor=#8C8496;fontColor=#ffffff;align=center;arcSize=10;strokeColor=#736782;metaEdit=1;resizable=0;points=[[0.25,0,0],[0.5,0,0],[0.75,0,0],[1,0.25,0],[1,0.5,0],[1,0.75,0],[0.75,1,0],[0.5,1,0],[0.25,1,0],[0,0.75,0],[0,0.5,0],[0,0.25,0]];" parent="1" vertex="1">
            <mxGeometry x="2460" y="464" width="240" height="120" as="geometry" />
          </mxCell>
        </object>
        <object placeholders="1" c4Name="smart-gate-db" c4Type="Container" c4Technology="PostgreSQL" c4Description="База данных Smart Gate" label="&lt;font style=&quot;font-size: 16px&quot;&gt;&lt;b&gt;%c4Name%&lt;/b&gt;&lt;/font&gt;&lt;div&gt;[%c4Type%:&amp;nbsp;%c4Technology%]&lt;/div&gt;&lt;br&gt;&lt;div&gt;&lt;font style=&quot;font-size: 11px&quot;&gt;&lt;font color=&quot;#E6E6E6&quot;&gt;%c4Description%&lt;/font&gt;&lt;/div&gt;" id="HwbPbKse9-UZTt6arCgf-114">
          <mxCell style="shape=cylinder3;size=15;whiteSpace=wrap;html=1;boundedLbl=1;rounded=0;labelBackgroundColor=none;fillColor=#23A2D9;fontSize=12;fontColor=#ffffff;align=center;strokeColor=#0E7DAD;metaEdit=1;points=[[0.5,0,0],[1,0.25,0],[1,0.5,0],[1,0.75,0],[0.5,1,0],[0,0.75,0],[0,0.5,0],[0,0.25,0]];resizable=0;" parent="1" vertex="1">
            <mxGeometry x="2160" y="910" width="240" height="120" as="geometry" />
          </mxCell>
        </object>
        <object placeholders="1" c4Name="smart-intercom-db" c4Type="Container" c4Technology="PostgreSQL" c4Description="База данных Smart Intercom" label="&lt;font style=&quot;font-size: 16px&quot;&gt;&lt;b&gt;%c4Name%&lt;/b&gt;&lt;/font&gt;&lt;div&gt;[%c4Type%:&amp;nbsp;%c4Technology%]&lt;/div&gt;&lt;br&gt;&lt;div&gt;&lt;font style=&quot;font-size: 11px&quot;&gt;&lt;font color=&quot;#E6E6E6&quot;&gt;%c4Description%&lt;/font&gt;&lt;/div&gt;" id="HwbPbKse9-UZTt6arCgf-115">
          <mxCell style="shape=cylinder3;size=15;whiteSpace=wrap;html=1;boundedLbl=1;rounded=0;labelBackgroundColor=none;fillColor=#23A2D9;fontSize=12;fontColor=#ffffff;align=center;strokeColor=#0E7DAD;metaEdit=1;points=[[0.5,0,0],[1,0.25,0],[1,0.5,0],[1,0.75,0],[0.5,1,0],[0,0.75,0],[0,0.5,0],[0,0.25,0]];resizable=0;" parent="1" vertex="1">
            <mxGeometry x="1600" y="870" width="240" height="120" as="geometry" />
          </mxCell>
        </object>
        <object placeholders="1" c4Name="user-actions-db" c4Type="Container" c4Technology="PostgreSQL" c4Description="Логи действий пользователей в сисетме Умный Дом. " label="&lt;font style=&quot;font-size: 16px&quot;&gt;&lt;b&gt;%c4Name%&lt;/b&gt;&lt;/font&gt;&lt;div&gt;[%c4Type%:&amp;nbsp;%c4Technology%]&lt;/div&gt;&lt;br&gt;&lt;div&gt;&lt;font style=&quot;font-size: 11px&quot;&gt;&lt;font color=&quot;#E6E6E6&quot;&gt;%c4Description%&lt;/font&gt;&lt;/div&gt;" id="HwbPbKse9-UZTt6arCgf-123">
          <mxCell style="shape=cylinder3;size=15;whiteSpace=wrap;html=1;boundedLbl=1;rounded=0;labelBackgroundColor=none;fillColor=#23A2D9;fontSize=12;fontColor=#ffffff;align=center;strokeColor=#0E7DAD;metaEdit=1;points=[[0.5,0,0],[1,0.25,0],[1,0.5,0],[1,0.75,0],[0.5,1,0],[0,0.75,0],[0,0.5,0],[0,0.25,0]];resizable=0;" parent="1" vertex="1">
            <mxGeometry x="1880" y="1010" width="240" height="120" as="geometry" />
          </mxCell>
        </object>
        <mxCell id="HwbPbKse9-UZTt6arCgf-131" style="edgeStyle=orthogonalEdgeStyle;rounded=0;orthogonalLoop=1;jettySize=auto;html=1;" parent="1" source="HwbPbKse9-UZTt6arCgf-115" target="HwbPbKse9-UZTt6arCgf-35" edge="1">
          <mxGeometry relative="1" as="geometry">
            <Array as="points">
              <mxPoint x="1730" y="1030" />
              <mxPoint x="1730" y="1030" />
            </Array>
          </mxGeometry>
        </mxCell>
        <mxCell id="HwbPbKse9-UZTt6arCgf-132" style="edgeStyle=orthogonalEdgeStyle;rounded=0;orthogonalLoop=1;jettySize=auto;html=1;" parent="1" source="HwbPbKse9-UZTt6arCgf-114" target="HwbPbKse9-UZTt6arCgf-35" edge="1">
          <mxGeometry relative="1" as="geometry">
            <Array as="points">
              <mxPoint x="2280" y="1430" />
            </Array>
          </mxGeometry>
        </mxCell>
      </root>
    </mxGraphModel>
  </diagram>
</mxfile>
